<svg width="620" height="583" viewBox="0 0 620 583" fill="none" xmlns="http://www.w3.org/2000/svg">
<path fill-rule="evenodd" clip-rule="evenodd" d="M317.953 188.24V168.557L451.667 204.798V226.042L317.953 188.24ZM329.825 186.365C327.671 185.741 327.058 183.221 327.638 181.054C328.152 179.135 329.403 177.525 331.387 177.617C333.687 177.725 334.88 180.344 334.511 182.616C334.136 184.93 332.076 187.017 329.825 186.365Z" fill="#666666"/>
<path d="M327.638 181.054C327.058 183.221 327.671 185.741 329.825 186.365C332.076 187.017 334.136 184.93 334.511 182.616C334.88 180.344 333.687 177.725 331.387 177.617C329.403 177.525 328.152 179.135 327.638 181.054Z" fill="#29E01F"/>
<path d="M338.573 184.803C337.993 186.97 338.605 189.49 340.76 190.114C343.011 190.766 345.071 188.679 345.446 186.365C345.814 184.093 344.621 181.474 342.322 181.366C340.338 181.274 339.086 182.884 338.573 184.803Z" fill="#E0461F"/>
<path fill-rule="evenodd" clip-rule="evenodd" d="M317.953 188.24V168.557L451.667 204.798V226.042L317.953 188.24ZM329.825 186.365C327.671 185.741 327.058 183.221 327.638 181.054C328.152 179.135 329.403 177.525 331.387 177.617C333.687 177.725 334.88 180.344 334.511 182.616C334.136 184.93 332.076 187.017 329.825 186.365Z" stroke="black"/>
<path d="M327.638 181.054C327.058 183.221 327.671 185.741 329.825 186.365C332.076 187.017 334.136 184.93 334.511 182.616C334.88 180.344 333.687 177.725 331.387 177.617C329.403 177.525 328.152 179.135 327.638 181.054Z" stroke="black"/>
<path d="M338.573 184.803C337.993 186.97 338.605 189.49 340.76 190.114C343.011 190.766 345.071 188.679 345.446 186.365C345.814 184.093 344.621 181.474 342.322 181.366C340.338 181.274 339.086 182.884 338.573 184.803Z" stroke="black"/>
<path d="M407.617 201.049L406.367 207.922L434.797 215.107L436.359 207.922L407.617 201.049Z" fill="#1D1D1D" stroke="black"/>
<path fill-rule="evenodd" clip-rule="evenodd" d="M317.953 208.234V188.552L451.667 224.792V246.037L317.953 208.234ZM329.825 206.36C327.671 205.736 327.058 203.215 327.638 201.049C328.152 199.13 329.403 197.519 331.387 197.612C333.687 197.72 334.88 200.338 334.511 202.611C334.136 204.924 332.076 207.012 329.825 206.36Z" fill="#666666"/>
<path d="M327.638 201.049C327.058 203.215 327.671 205.736 329.825 206.36C332.076 207.012 334.136 204.924 334.511 202.611C334.88 200.338 333.687 197.72 331.387 197.612C329.403 197.519 328.152 199.13 327.638 201.049Z" fill="#29E01F"/>
<path d="M338.573 204.798C337.993 206.964 338.605 209.485 340.76 210.109C343.011 210.761 345.071 208.673 345.446 206.36C345.814 204.087 344.621 201.469 342.322 201.361C340.338 201.268 339.086 202.879 338.573 204.798Z" fill="#E0461F"/>
<path fill-rule="evenodd" clip-rule="evenodd" d="M317.953 208.234V188.552L451.667 224.792V246.037L317.953 208.234ZM329.825 206.36C327.671 205.736 327.058 203.215 327.638 201.049C328.152 199.13 329.403 197.519 331.387 197.612C333.687 197.72 334.88 200.338 334.511 202.611C334.136 204.924 332.076 207.012 329.825 206.36Z" stroke="black"/>
<path d="M327.638 201.049C327.058 203.215 327.671 205.736 329.825 206.36C332.076 207.012 334.136 204.924 334.511 202.611C334.88 200.338 333.687 197.72 331.387 197.612C329.403 197.519 328.152 199.13 327.638 201.049Z" stroke="black"/>
<path d="M338.573 204.798C337.993 206.964 338.605 209.485 340.76 210.109C343.011 210.761 345.071 208.673 345.446 206.36C345.814 204.087 344.621 201.469 342.322 201.361C340.338 201.268 339.086 202.879 338.573 204.798Z" stroke="black"/>
<path d="M407.617 221.043L406.367 227.916L434.797 235.102L436.359 227.916L407.617 221.043Z" fill="#1D1D1D" stroke="black"/>
<path fill-rule="evenodd" clip-rule="evenodd" d="M317.953 227.604V207.922L451.667 244.162V265.406L317.953 227.604ZM329.825 225.73C327.671 225.105 327.058 222.585 327.638 220.418C328.152 218.5 329.403 216.889 331.387 216.982C333.687 217.09 334.88 219.708 334.511 221.981C334.136 224.294 332.076 226.382 329.825 225.73Z" fill="#666666"/>
<path d="M327.638 220.418C327.058 222.585 327.671 225.105 329.825 225.73C332.076 226.382 334.136 224.294 334.511 221.981C334.88 219.708 333.687 217.09 331.387 216.982C329.403 216.889 328.152 218.5 327.638 220.418Z" fill="#E01F22"/>
<path d="M338.573 224.167C337.993 226.334 338.605 228.854 340.76 229.479C343.011 230.131 345.071 228.043 345.446 225.73C345.814 223.457 344.621 220.838 342.322 220.731C340.338 220.638 339.086 222.249 338.573 224.167Z" fill="#E0461F"/>
<path fill-rule="evenodd" clip-rule="evenodd" d="M317.953 227.604V207.922L451.667 244.162V265.406L317.953 227.604ZM329.825 225.73C327.671 225.105 327.058 222.585 327.638 220.418C328.152 218.5 329.403 216.889 331.387 216.982C333.687 217.09 334.88 219.708 334.511 221.981C334.136 224.294 332.076 226.382 329.825 225.73Z" stroke="black"/>
<path d="M327.638 220.418C327.058 222.585 327.671 225.105 329.825 225.73C332.076 226.382 334.136 224.294 334.511 221.981C334.88 219.708 333.687 217.09 331.387 216.982C329.403 216.889 328.152 218.5 327.638 220.418Z" stroke="black"/>
<path d="M338.573 224.167C337.993 226.334 338.605 228.854 340.76 229.479C343.011 230.131 345.071 228.043 345.446 225.73C345.814 223.457 344.621 220.838 342.322 220.731C340.338 220.638 339.086 222.249 338.573 224.167Z" stroke="black"/>
<path d="M407.617 240.413L406.367 247.286L434.797 254.472L436.359 247.286L407.617 240.413Z" fill="#1D1D1D" stroke="black"/>
<path fill-rule="evenodd" clip-rule="evenodd" d="M317.953 247.599V227.916L451.667 264.157V285.401L317.953 247.599ZM329.825 245.724C327.671 245.1 327.058 242.58 327.638 240.413C328.152 238.495 329.403 236.884 331.387 236.977C333.687 237.084 334.88 239.703 334.511 241.975C334.136 244.289 332.076 246.376 329.825 245.724Z" fill="#666666"/>
<path d="M327.638 240.413C327.058 242.58 327.671 245.1 329.825 245.724C332.076 246.376 334.136 244.289 334.511 241.975C334.88 239.703 333.687 237.084 331.387 236.977C329.403 236.884 328.152 238.495 327.638 240.413Z" fill="#1FCDE0"/>
<path d="M338.573 244.162C337.993 246.329 338.605 248.849 340.76 249.473C343.011 250.125 345.071 248.038 345.446 245.724C345.814 243.452 344.621 240.833 342.322 240.726C340.338 240.633 339.086 242.244 338.573 244.162Z" fill="#1F83E0"/>
<path fill-rule="evenodd" clip-rule="evenodd" d="M317.953 247.599V227.916L451.667 264.157V285.401L317.953 247.599ZM329.825 245.724C327.671 245.1 327.058 242.58 327.638 240.413C328.152 238.495 329.403 236.884 331.387 236.977C333.687 237.084 334.88 239.703 334.511 241.975C334.136 244.289 332.076 246.376 329.825 245.724Z" stroke="black"/>
<path d="M327.638 240.413C327.058 242.58 327.671 245.1 329.825 245.724C332.076 246.376 334.136 244.289 334.511 241.975C334.88 239.703 333.687 237.084 331.387 236.977C329.403 236.884 328.152 238.495 327.638 240.413Z" stroke="black"/>
<path d="M338.573 244.162C337.993 246.329 338.605 248.849 340.76 249.473C343.011 250.125 345.071 248.038 345.446 245.724C345.814 243.452 344.621 240.833 342.322 240.726C340.338 240.633 339.086 242.244 338.573 244.162Z" stroke="black"/>
<path d="M407.617 260.408L406.367 267.281L434.797 274.467L436.359 267.281L407.617 260.408Z" fill="#1D1D1D" stroke="black"/>
<path fill-rule="evenodd" clip-rule="evenodd" d="M317.953 266.969V247.286L451.667 283.527V304.771L317.953 266.969ZM329.825 265.094C327.671 264.47 327.058 261.95 327.638 259.783C328.152 257.864 329.403 256.253 331.387 256.346C333.687 256.454 334.88 259.073 334.511 261.345C334.136 263.658 332.076 265.746 329.825 265.094Z" fill="#666666"/>
<path d="M327.638 259.783C327.058 261.95 327.671 264.47 329.825 265.094C332.076 265.746 334.136 263.658 334.511 261.345C334.88 259.073 333.687 256.454 331.387 256.346C329.403 256.253 328.152 257.864 327.638 259.783Z" fill="#29E01F"/>
<path d="M338.573 263.532C337.993 265.699 338.605 268.219 340.76 268.843C343.011 269.495 345.071 267.407 345.446 265.094C345.814 262.822 344.621 260.203 342.322 260.095C340.338 260.002 339.086 261.613 338.573 263.532Z" fill="#E0461F"/>
<path fill-rule="evenodd" clip-rule="evenodd" d="M317.953 266.969V247.286L451.667 283.527V304.771L317.953 266.969ZM329.825 265.094C327.671 264.47 327.058 261.95 327.638 259.783C328.152 257.864 329.403 256.253 331.387 256.346C333.687 256.454 334.88 259.073 334.511 261.345C334.136 263.658 332.076 265.746 329.825 265.094Z" stroke="black"/>
<path d="M327.638 259.783C327.058 261.95 327.671 264.47 329.825 265.094C332.076 265.746 334.136 263.658 334.511 261.345C334.88 259.073 333.687 256.454 331.387 256.346C329.403 256.253 328.152 257.864 327.638 259.783Z" stroke="black"/>
<path d="M338.573 263.532C337.993 265.699 338.605 268.219 340.76 268.843C343.011 269.495 345.071 267.407 345.446 265.094C345.814 262.822 344.621 260.203 342.322 260.095C340.338 260.002 339.086 261.613 338.573 263.532Z" stroke="black"/>
<path d="M407.617 279.778L406.367 286.651L434.797 293.836L436.359 286.651L407.617 279.778Z" fill="#1D1D1D" stroke="black"/>
<path fill-rule="evenodd" clip-rule="evenodd" d="M317.953 286.963V267.281L451.667 303.521V324.766L317.953 286.963ZM329.825 285.089C327.671 284.465 327.058 281.944 327.638 279.778C328.152 277.859 329.403 276.248 331.387 276.341C333.687 276.449 334.88 279.067 334.511 281.34C334.136 283.653 332.076 285.741 329.825 285.089Z" fill="#666666"/>
<path d="M327.638 279.778C327.058 281.944 327.671 284.465 329.825 285.089C332.076 285.741 334.136 283.653 334.511 281.34C334.88 279.067 333.687 276.449 331.387 276.341C329.403 276.248 328.152 277.859 327.638 279.778Z" fill="#261FE0"/>
<path d="M338.573 283.527C337.993 285.693 338.605 288.214 340.76 288.838C343.011 289.49 345.071 287.402 345.446 285.089C345.814 282.816 344.621 280.198 342.322 280.09C340.338 279.997 339.086 281.608 338.573 283.527Z" fill="#1FE060"/>
<path fill-rule="evenodd" clip-rule="evenodd" d="M317.953 286.963V267.281L451.667 303.521V324.766L317.953 286.963ZM329.825 285.089C327.671 284.465 327.058 281.944 327.638 279.778C328.152 277.859 329.403 276.248 331.387 276.341C333.687 276.449 334.88 279.067 334.511 281.34C334.136 283.653 332.076 285.741 329.825 285.089Z" stroke="black"/>
<path d="M327.638 279.778C327.058 281.944 327.671 284.465 329.825 285.089C332.076 285.741 334.136 283.653 334.511 281.34C334.88 279.067 333.687 276.449 331.387 276.341C329.403 276.248 328.152 277.859 327.638 279.778Z" stroke="black"/>
<path d="M338.573 283.527C337.993 285.693 338.605 288.214 340.76 288.838C343.011 289.49 345.071 287.402 345.446 285.089C345.814 282.816 344.621 280.198 342.322 280.09C340.338 279.997 339.086 281.608 338.573 283.527Z" stroke="black"/>
<path d="M407.617 299.772L406.367 306.645L434.797 313.831L436.359 306.645L407.617 299.772Z" fill="#1D1D1D" stroke="black"/>
<path fill-rule="evenodd" clip-rule="evenodd" d="M317.953 306.958V287.276L451.667 323.516V344.76L317.953 306.958ZM329.825 305.083C327.671 304.459 327.058 301.939 327.638 299.772C328.152 297.854 329.403 296.243 331.387 296.336C333.687 296.443 334.88 299.062 334.511 301.334C334.136 303.648 332.076 305.735 329.825 305.083Z" fill="#666666"/>
<path d="M327.638 299.772C327.058 301.939 327.671 304.459 329.825 305.083C332.076 305.735 334.136 303.648 334.511 301.334C334.88 299.062 333.687 296.443 331.387 296.336C329.403 296.243 328.152 297.854 327.638 299.772Z" fill="#29E01F"/>
<path d="M338.573 303.521C337.993 305.688 338.605 308.208 340.76 308.832C343.011 309.484 345.071 307.397 345.446 305.083C345.814 302.811 344.621 300.192 342.322 300.085C340.338 299.992 339.086 301.603 338.573 303.521Z" fill="#E0461F"/>
<path fill-rule="evenodd" clip-rule="evenodd" d="M317.953 306.958V287.276L451.667 323.516V344.76L317.953 306.958ZM329.825 305.083C327.671 304.459 327.058 301.939 327.638 299.772C328.152 297.854 329.403 296.243 331.387 296.336C333.687 296.443 334.88 299.062 334.511 301.334C334.136 303.648 332.076 305.735 329.825 305.083Z" stroke="black"/>
<path d="M327.638 299.772C327.058 301.939 327.671 304.459 329.825 305.083C332.076 305.735 334.136 303.648 334.511 301.334C334.88 299.062 333.687 296.443 331.387 296.336C329.403 296.243 328.152 297.854 327.638 299.772Z" stroke="black"/>
<path d="M338.573 303.521C337.993 305.688 338.605 308.208 340.76 308.832C343.011 309.484 345.071 307.397 345.446 305.083C345.814 302.811 344.621 300.192 342.322 300.085C340.338 299.992 339.086 301.603 338.573 303.521Z" stroke="black"/>
<path d="M407.617 319.767L406.367 326.64L434.797 333.826L436.359 326.64L407.617 319.767Z" fill="#1D1D1D" stroke="black"/>
<path fill-rule="evenodd" clip-rule="evenodd" d="M317.953 326.328V306.645L451.667 342.886V364.13L317.953 326.328ZM329.825 324.453C327.671 323.829 327.058 321.309 327.638 319.142C328.152 317.223 329.403 315.613 331.387 315.705C333.687 315.813 334.88 318.432 334.511 320.704C334.136 323.018 332.076 325.105 329.825 324.453Z" fill="#666666"/>
<path d="M327.638 319.142C327.058 321.309 327.671 323.829 329.825 324.453C332.076 325.105 334.136 323.018 334.511 320.704C334.88 318.432 333.687 315.813 331.387 315.705C329.403 315.613 328.152 317.223 327.638 319.142Z" fill="#29E01F"/>
<path d="M338.573 322.891C337.993 325.058 338.605 327.578 340.76 328.202C343.011 328.854 345.071 326.767 345.446 324.453C345.814 322.181 344.621 319.562 342.322 319.454C340.338 319.362 339.086 320.972 338.573 322.891Z" fill="#E0461F"/>
<path fill-rule="evenodd" clip-rule="evenodd" d="M317.953 326.328V306.645L451.667 342.886V364.13L317.953 326.328ZM329.825 324.453C327.671 323.829 327.058 321.309 327.638 319.142C328.152 317.223 329.403 315.613 331.387 315.705C333.687 315.813 334.88 318.432 334.511 320.704C334.136 323.018 332.076 325.105 329.825 324.453Z" stroke="black"/>
<path d="M327.638 319.142C327.058 321.309 327.671 323.829 329.825 324.453C332.076 325.105 334.136 323.018 334.511 320.704C334.88 318.432 333.687 315.813 331.387 315.705C329.403 315.613 328.152 317.223 327.638 319.142Z" stroke="black"/>
<path d="M338.573 322.891C337.993 325.058 338.605 327.578 340.76 328.202C343.011 328.854 345.071 326.767 345.446 324.453C345.814 322.181 344.621 319.562 342.322 319.454C340.338 319.362 339.086 320.972 338.573 322.891Z" stroke="black"/>
<path d="M407.617 339.137L406.367 346.01L434.797 353.195L436.359 346.01L407.617 339.137Z" fill="#1D1D1D" stroke="black"/>
<path fill-rule="evenodd" clip-rule="evenodd" d="M317.953 344.448V324.766L451.667 361.006V382.25L317.953 344.448ZM329.825 342.573C327.671 341.949 327.058 339.429 327.638 337.262C328.152 335.344 329.403 333.733 331.387 333.826C333.687 333.933 334.88 336.552 334.511 338.824C334.136 341.138 332.076 343.225 329.825 342.573Z" fill="#666666"/>
<path d="M327.638 337.262C327.058 339.429 327.671 341.949 329.825 342.573C332.076 343.225 334.136 341.138 334.511 338.824C334.88 336.552 333.687 333.933 331.387 333.826C329.403 333.733 328.152 335.344 327.638 337.262Z" fill="#1FE043"/>
<path d="M338.573 341.011C337.993 343.178 338.605 345.698 340.76 346.322C343.011 346.974 345.071 344.887 345.446 342.573C345.814 340.301 344.621 337.682 342.322 337.575C340.338 337.482 339.086 339.093 338.573 341.011Z" fill="#E01FB7"/>
<path fill-rule="evenodd" clip-rule="evenodd" d="M317.953 344.448V324.766L451.667 361.006V382.25L317.953 344.448ZM329.825 342.573C327.671 341.949 327.058 339.429 327.638 337.262C328.152 335.344 329.403 333.733 331.387 333.826C333.687 333.933 334.88 336.552 334.511 338.824C334.136 341.138 332.076 343.225 329.825 342.573Z" stroke="black"/>
<path d="M327.638 337.262C327.058 339.429 327.671 341.949 329.825 342.573C332.076 343.225 334.136 341.138 334.511 338.824C334.88 336.552 333.687 333.933 331.387 333.826C329.403 333.733 328.152 335.344 327.638 337.262Z" stroke="black"/>
<path d="M338.573 341.011C337.993 343.178 338.605 345.698 340.76 346.322C343.011 346.974 345.071 344.887 345.446 342.573C345.814 340.301 344.621 337.682 342.322 337.575C340.338 337.482 339.086 339.093 338.573 341.011Z" stroke="black"/>
<path d="M407.617 357.257L406.367 364.13L434.797 371.316L436.359 364.13L407.617 357.257Z" fill="#1D1D1D" stroke="black"/>
<path fill-rule="evenodd" clip-rule="evenodd" d="M317.953 364.442V344.76L451.667 381.001V402.245L317.953 364.442ZM329.825 362.568C327.671 361.944 327.058 359.424 327.638 357.257C328.152 355.338 329.403 353.727 331.387 353.82C333.687 353.928 334.88 356.547 334.511 358.819C334.136 361.132 332.076 363.22 329.825 362.568Z" fill="#666666"/>
<path d="M327.638 357.257C327.058 359.424 327.671 361.944 329.825 362.568C332.076 363.22 334.136 361.132 334.511 358.819C334.88 356.547 333.687 353.928 331.387 353.82C329.403 353.727 328.152 355.338 327.638 357.257Z" fill="#29E01F"/>
<path d="M338.573 361.006C337.993 363.173 338.605 365.693 340.76 366.317C343.011 366.969 345.071 364.881 345.446 362.568C345.814 360.296 344.621 357.677 342.322 357.569C340.338 357.476 339.086 359.087 338.573 361.006Z" fill="#E0461F"/>
<path fill-rule="evenodd" clip-rule="evenodd" d="M317.953 364.442V344.76L451.667 381.001V402.245L317.953 364.442ZM329.825 362.568C327.671 361.944 327.058 359.424 327.638 357.257C328.152 355.338 329.403 353.727 331.387 353.82C333.687 353.928 334.88 356.547 334.511 358.819C334.136 361.132 332.076 363.22 329.825 362.568Z" stroke="black"/>
<path d="M327.638 357.257C327.058 359.424 327.671 361.944 329.825 362.568C332.076 363.22 334.136 361.132 334.511 358.819C334.88 356.547 333.687 353.928 331.387 353.82C329.403 353.727 328.152 355.338 327.638 357.257Z" stroke="black"/>
<path d="M338.573 361.006C337.993 363.173 338.605 365.693 340.76 366.317C343.011 366.969 345.071 364.881 345.446 362.568C345.814 360.296 344.621 357.677 342.322 357.569C340.338 357.476 339.086 359.087 338.573 361.006Z" stroke="black"/>
<path d="M407.617 377.252L406.367 384.125L434.797 391.31L436.359 384.125L407.617 377.252Z" fill="#1D1D1D" stroke="black"/>
<path fill-rule="evenodd" clip-rule="evenodd" d="M317.953 383.812V364.13L451.667 400.37V421.615L317.953 383.812ZM329.825 381.938C327.671 381.314 327.058 378.794 327.638 376.627C328.152 374.708 329.403 373.097 331.387 373.19C333.687 373.298 334.88 375.916 334.511 378.189C334.136 380.502 332.076 382.59 329.825 381.938Z" fill="#666666"/>
<path d="M327.638 376.627C327.058 378.794 327.671 381.314 329.825 381.938C332.076 382.59 334.136 380.502 334.511 378.189C334.88 375.916 333.687 373.298 331.387 373.19C329.403 373.097 328.152 374.708 327.638 376.627Z" fill="#29E01F"/>
<path d="M338.573 380.376C337.993 382.543 338.605 385.063 340.76 385.687C343.011 386.339 345.071 384.251 345.446 381.938C345.814 379.665 344.621 377.047 342.322 376.939C340.338 376.846 339.086 378.457 338.573 380.376Z" fill="#E0461F"/>
<path fill-rule="evenodd" clip-rule="evenodd" d="M317.953 383.812V364.13L451.667 400.37V421.615L317.953 383.812ZM329.825 381.938C327.671 381.314 327.058 378.794 327.638 376.627C328.152 374.708 329.403 373.097 331.387 373.19C333.687 373.298 334.88 375.916 334.511 378.189C334.136 380.502 332.076 382.59 329.825 381.938Z" stroke="black"/>
<path d="M327.638 376.627C327.058 378.794 327.671 381.314 329.825 381.938C332.076 382.59 334.136 380.502 334.511 378.189C334.88 375.916 333.687 373.298 331.387 373.19C329.403 373.097 328.152 374.708 327.638 376.627Z" stroke="black"/>
<path d="M338.573 380.376C337.993 382.543 338.605 385.063 340.76 385.687C343.011 386.339 345.071 384.251 345.446 381.938C345.814 379.665 344.621 377.047 342.322 376.939C340.338 376.846 339.086 378.457 338.573 380.376Z" stroke="black"/>
<path d="M407.617 396.621L406.367 403.495L434.797 410.68L436.359 403.495L407.617 396.621Z" fill="#1D1D1D" stroke="black"/>
<path fill-rule="evenodd" clip-rule="evenodd" d="M317.953 401.932V382.25L451.667 418.491V439.735L317.953 401.932ZM329.825 400.058C327.671 399.434 327.058 396.914 327.638 394.747C328.152 392.828 329.403 391.217 331.387 391.31C333.687 391.418 334.88 394.037 334.511 396.309C334.136 398.622 332.076 400.71 329.825 400.058Z" fill="#666666"/>
<path d="M327.638 394.747C327.058 396.914 327.671 399.434 329.825 400.058C332.076 400.71 334.136 398.622 334.511 396.309C334.88 394.037 333.687 391.418 331.387 391.31C329.403 391.217 328.152 392.828 327.638 394.747Z" fill="#E09D1F"/>
<path d="M338.573 398.496C337.993 400.663 338.605 403.183 340.76 403.807C343.011 404.459 345.071 402.371 345.446 400.058C345.814 397.786 344.621 395.167 342.322 395.059C340.338 394.966 339.086 396.577 338.573 398.496Z" fill="#E0461F"/>
<path fill-rule="evenodd" clip-rule="evenodd" d="M317.953 401.932V382.25L451.667 418.491V439.735L317.953 401.932ZM329.825 400.058C327.671 399.434 327.058 396.914 327.638 394.747C328.152 392.828 329.403 391.217 331.387 391.31C333.687 391.418 334.88 394.037 334.511 396.309C334.136 398.622 332.076 400.71 329.825 400.058Z" stroke="black"/>
<path d="M327.638 394.747C327.058 396.914 327.671 399.434 329.825 400.058C332.076 400.71 334.136 398.622 334.511 396.309C334.88 394.037 333.687 391.418 331.387 391.31C329.403 391.217 328.152 392.828 327.638 394.747Z" stroke="black"/>
<path d="M338.573 398.496C337.993 400.663 338.605 403.183 340.76 403.807C343.011 404.459 345.071 402.371 345.446 400.058C345.814 397.786 344.621 395.167 342.322 395.059C340.338 394.966 339.086 396.577 338.573 398.496Z" stroke="black"/>
<path d="M407.617 414.742L406.367 421.615L434.797 428.8L436.359 421.615L407.617 414.742Z" fill="#1D1D1D" stroke="black"/>
<path fill-rule="evenodd" clip-rule="evenodd" d="M329.825 420.053C328.579 419.692 327.849 418.696 327.567 417.502C327.361 416.632 327.394 415.655 327.638 414.742C328.152 412.823 329.403 411.212 331.387 411.305C333.687 411.413 334.88 414.031 334.511 416.304C334.351 417.29 333.885 418.235 333.229 418.944C332.345 419.899 331.117 420.427 329.825 420.053Z" fill="#666666"/>
<path d="M327.638 414.742C327.394 415.655 327.361 416.632 327.567 417.502C327.849 418.696 328.579 419.692 329.825 420.053C331.117 420.427 332.345 419.899 333.229 418.944C333.885 418.235 334.351 417.29 334.511 416.304C334.88 414.031 333.687 411.413 331.387 411.305C329.403 411.212 328.152 412.823 327.638 414.742Z" fill="#29E01F"/>
<path d="M338.573 418.491C338.418 419.067 338.348 419.669 338.37 420.253C338.428 421.865 339.179 423.344 340.76 423.802C342.382 424.272 343.905 423.319 344.77 421.883C345.105 421.327 345.341 420.699 345.446 420.053C345.814 417.78 344.621 415.162 342.322 415.054C340.338 414.961 339.086 416.572 338.573 418.491Z" fill="#E0461F"/>
<path d="M451.667 438.485L317.953 402.245V415.054L327.567 417.502C327.361 416.632 327.394 415.655 327.638 414.742C328.152 412.823 329.403 411.212 331.387 411.305C333.687 411.413 334.88 414.031 334.511 416.304C334.351 417.29 333.885 418.235 333.229 418.944L338.37 420.253C338.348 419.669 338.418 419.067 338.573 418.491C339.086 416.572 340.338 414.961 342.322 415.054C344.621 415.162 345.814 417.78 345.446 420.053C345.341 420.699 345.105 421.327 344.77 421.883L451.667 449.107V438.485Z" fill="#666666"/>
<path d="M327.567 417.502L317.953 415.054V402.245L451.667 438.485V449.107L344.77 421.883M327.567 417.502C327.361 416.632 327.394 415.655 327.638 414.742C328.152 412.823 329.403 411.212 331.387 411.305C333.687 411.413 334.88 414.031 334.511 416.304C334.351 417.29 333.885 418.235 333.229 418.944M327.567 417.502L333.229 418.944M327.567 417.502C327.849 418.696 328.579 419.692 329.825 420.053C331.117 420.427 332.345 419.899 333.229 418.944M333.229 418.944L338.37 420.253M338.37 420.253C338.348 419.669 338.418 419.067 338.573 418.491C339.086 416.572 340.338 414.961 342.322 415.054C344.621 415.162 345.814 417.78 345.446 420.053C345.341 420.699 345.105 421.327 344.77 421.883M338.37 420.253C338.428 421.865 339.179 423.344 340.76 423.802C342.382 424.272 343.905 423.319 344.77 421.883M338.37 420.253L344.77 421.883" stroke="black"/>
<path d="M407.617 434.736L406.367 441.609L434.797 448.795L436.359 441.609L407.617 434.736Z" fill="#1D1D1D" stroke="black"/>
<path d="M325.593 319.435C322.875 320.414 326.233 326.788 326.233 326.788L332.532 328.381C332.532 328.381 329.339 324.749 330.324 322.505C331.42 320.009 335.704 323.002 337.068 320.641C338.275 318.552 334.51 315.406 336.161 314.532L340.39 312.295C342.042 311.421 344.029 310.183 345.931 311.279C347.912 312.421 346.387 314.003 346.574 316.276C346.804 319.092 345.646 320.84 346.574 323.509C347.128 325.102 348.653 325.551 348.764 327.233C348.9 329.29 346.162 331.828 346.162 331.828L351.349 333.139C351.349 333.139 353.387 329.99 353.44 327.725C353.516 324.443 349.882 323.554 349.493 320.294C348.846 314.869 361.943 309.007 356.525 308.194C353.21 307.696 348.82 311.962 348.82 311.962C348.82 311.962 353.353 302.144 351.63 296.086C348.953 286.676 343.553 312.708 342.692 310.559C341.831 308.41 345.484 296.506 340.532 301.123C337.272 304.162 341.092 310.406 336.897 311.928C331.761 313.79 333.391 298.309 328.508 300.753C323.628 303.195 333.637 308.831 332.426 314.139C331.842 316.7 331.974 319.485 329.429 320.163C327.956 320.555 327.027 318.918 325.593 319.435Z" fill="#CE2E19"/>
<path d="M330.324 322.505C329.339 324.749 332.532 328.381 332.532 328.381L337.216 329.566C337.216 329.566 335.223 326.772 335.539 324.841C335.995 322.064 338.611 319.723 341.319 320.519C343.706 321.22 344.53 323.619 344.373 326.095C344.243 328.17 341.689 330.697 341.689 330.697L346.162 331.828C346.162 331.828 348.9 329.29 348.764 327.233C348.653 325.551 347.128 325.102 346.574 323.509C345.646 320.84 346.804 319.092 346.574 316.276C346.387 314.003 347.912 312.421 345.931 311.279C344.029 310.183 342.042 311.421 340.39 312.295L336.161 314.532C334.51 315.406 338.275 318.552 337.068 320.641C335.704 323.002 331.42 320.009 330.324 322.505Z" fill="#CE6419"/>
<path d="M335.539 324.841C335.223 326.772 337.216 329.566 337.216 329.566L341.689 330.697C341.689 330.697 344.243 328.17 344.373 326.095C344.53 323.619 343.706 321.22 341.319 320.519C338.611 319.723 335.995 322.064 335.539 324.841Z" fill="#CEB319"/>
<path d="M332.532 328.381L326.233 326.788C326.233 326.788 322.875 320.414 325.593 319.435C327.027 318.918 327.956 320.555 329.429 320.163C331.974 319.485 331.842 316.7 332.426 314.139C333.637 308.831 323.628 303.195 328.508 300.753C333.391 298.309 331.761 313.79 336.897 311.928C341.092 310.406 337.272 304.162 340.532 301.123C345.484 296.506 341.831 308.41 342.692 310.559C343.553 312.708 348.953 286.676 351.63 296.086C353.353 302.144 348.82 311.962 348.82 311.962C348.82 311.962 353.21 307.696 356.525 308.194C361.943 309.007 348.846 314.869 349.493 320.294C349.882 323.554 353.516 324.443 353.44 327.725C353.387 329.99 351.349 333.139 351.349 333.139L346.162 331.828M332.532 328.381C332.532 328.381 329.339 324.749 330.324 322.505C331.42 320.009 335.704 323.002 337.068 320.641C338.275 318.552 334.51 315.406 336.161 314.532M332.532 328.381L337.216 329.566M336.161 314.532C337.813 313.658 338.739 313.168 340.39 312.295M336.161 314.532L340.39 312.295M340.39 312.295C342.042 311.421 344.029 310.183 345.931 311.279C347.912 312.421 346.387 314.003 346.574 316.276C346.804 319.092 345.646 320.84 346.574 323.509C347.128 325.102 348.653 325.551 348.764 327.233C348.9 329.29 346.162 331.828 346.162 331.828M346.162 331.828L341.689 330.697M337.216 329.566C337.216 329.566 335.223 326.772 335.539 324.841C335.995 322.064 338.611 319.723 341.319 320.519C343.706 321.22 344.53 323.619 344.373 326.095C344.243 328.17 341.689 330.697 341.689 330.697M337.216 329.566L341.689 330.697" stroke="black"/>
<path d="M387.848 243.746C385.129 244.725 406.837 311.792 406.837 311.792L413.135 313.385C413.135 313.385 397.259 276.71 398.244 274.467C399.34 271.97 396.948 257.285 399.181 255.722C402.306 253.535 396.28 230.977 397.932 230.103L408.242 232.915C409.893 231.358 411.964 224.545 413.865 226.497C415.847 228.532 426.579 248.762 426.765 251.035C426.996 253.85 431.025 261.488 431.953 264.157C432.506 265.75 429.256 310.555 429.367 312.237C429.503 314.294 426.765 316.832 426.765 316.832L431.953 318.143C431.953 318.143 433.99 314.994 434.043 312.729C434.12 309.447 436.123 285.537 435.734 282.277C435.087 276.852 444.171 242.145 438.753 241.331C435.437 240.834 431.048 245.099 431.048 245.099C431.048 245.099 432.771 238.974 431.048 232.915C428.371 223.505 423.786 239.438 422.925 237.289C422.064 235.14 414.985 205.804 410.033 210.421C406.772 213.46 408.688 225.77 404.493 227.292C399.357 229.154 401.566 214.85 396.682 217.294C391.803 219.736 395.892 233.142 394.68 238.451C394.096 241.012 394.228 243.796 391.683 244.475C390.211 244.867 389.281 243.23 387.848 243.746Z" fill="#CE2E19"/>
<path d="M398.244 274.467C397.259 276.71 413.135 313.385 413.135 313.385L417.82 314.57C417.82 314.57 399.551 279.778 402.306 267.593C403.702 261.417 405.742 247.599 413.865 248.848C422.841 250.229 427.228 270.883 426.765 278.216C426.634 280.291 422.293 315.701 422.293 315.701L426.765 316.832C426.765 316.832 429.503 314.294 429.367 312.237C429.256 310.555 432.506 265.75 431.953 264.157C431.025 261.488 426.996 253.85 426.765 251.035C426.579 248.762 415.847 228.532 413.865 226.497C411.964 224.545 409.893 231.358 408.242 232.915L397.932 230.103C396.28 230.977 402.306 253.535 399.181 255.722C396.948 257.285 399.34 271.97 398.244 274.467Z" fill="#CE6419"/>
<path d="M402.306 267.593C399.551 279.778 417.82 314.57 417.82 314.57L422.293 315.701C422.293 315.701 426.634 280.291 426.765 278.216C427.228 270.883 422.841 250.229 413.865 248.848C405.742 247.599 403.702 261.417 402.306 267.593Z" fill="#CEB319"/>
<path d="M413.135 313.385L406.837 311.792C406.837 311.792 385.129 244.725 387.848 243.746C389.281 243.23 390.211 244.867 391.683 244.475C394.228 243.796 394.096 241.012 394.68 238.451C395.892 233.142 391.803 219.736 396.682 217.294C401.566 214.85 399.357 229.154 404.493 227.292C408.688 225.77 406.772 213.46 410.033 210.421C414.985 205.804 422.064 235.14 422.925 237.289C423.786 239.438 428.371 223.505 431.048 232.915C432.771 238.974 431.048 245.099 431.048 245.099C431.048 245.099 435.437 240.834 438.753 241.331C444.171 242.145 435.087 276.852 435.734 282.277C436.123 285.537 434.12 309.447 434.043 312.729C433.99 314.994 431.953 318.143 431.953 318.143L426.765 316.832M413.135 313.385C413.135 313.385 397.259 276.71 398.244 274.467C399.34 271.97 396.948 257.285 399.181 255.722C402.306 253.535 396.28 230.977 397.932 230.103M413.135 313.385L417.82 314.57M397.932 230.103C399.583 229.23 406.59 234.472 408.242 232.915M397.932 230.103L408.242 232.915M408.242 232.915C409.893 231.358 411.964 224.545 413.865 226.497C415.847 228.532 426.579 248.762 426.765 251.035C426.996 253.85 431.025 261.488 431.953 264.157C432.506 265.75 429.256 310.555 429.367 312.237C429.503 314.294 426.765 316.832 426.765 316.832M426.765 316.832L422.293 315.701M417.82 314.57C417.82 314.57 399.551 279.778 402.306 267.593C403.702 261.417 405.742 247.599 413.865 248.848C422.841 250.229 427.228 270.883 426.765 278.216C426.634 280.291 422.293 315.701 422.293 315.701M417.82 314.57L422.293 315.701" stroke="black"/>
<path d="M455.416 453.481C498.53 443.484 545.839 413.492 554.765 400.995C563.691 388.499 566.494 168.156 557.889 155.436L455.416 199.799V453.481Z" fill="#818181"/>
<path d="M455.416 199.799L557.889 155.436C504.206 141.771 439.171 119.82 420.426 120.445C401.681 121.07 330.889 148.79 316.704 161.059L455.416 199.799Z" fill="#747474"/>
<path fill-rule="evenodd" clip-rule="evenodd" d="M455.416 453.481C399.806 446.608 323.577 431.612 316.704 420.365C312.246 413.07 313.57 348.757 315.052 276.828C315.855 237.855 316.704 196.646 316.704 161.059L455.416 199.799V453.481ZM438.858 435.361C431.673 442.547 335.136 421.927 326.701 412.242C318.266 402.557 322.327 187.927 328.888 179.179C335.449 170.432 436.359 208.234 438.858 214.17C441.358 220.106 446.044 428.175 438.858 435.361Z" fill="#9A9A9A"/>
<path d="M455.416 453.481C399.806 446.608 323.577 431.612 316.704 420.365C312.246 413.07 313.57 348.757 315.052 276.828C315.855 237.855 316.704 196.646 316.704 161.059M455.416 453.481C498.53 443.484 545.839 413.492 554.765 400.995C563.691 388.499 566.494 168.156 557.889 155.436M455.416 453.481C455.416 354.412 455.416 298.868 455.416 199.799M455.416 453.481V199.799M557.889 155.436C517.871 172.761 495.435 182.474 455.416 199.799M557.889 155.436C504.206 141.771 439.171 119.82 420.426 120.445C401.681 121.07 330.889 148.79 316.704 161.059M557.889 155.436L455.416 199.799M455.416 199.799C401.246 184.67 370.874 176.188 316.704 161.059M455.416 199.799L316.704 161.059M326.701 412.242C335.136 421.927 431.673 442.547 438.858 435.361C446.044 428.175 441.358 220.106 438.858 214.17C436.359 208.234 335.449 170.432 328.888 179.179C322.327 187.927 318.266 402.557 326.701 412.242Z" stroke="black"/>
<path d="M322.706 125.724C308.829 130.315 324.968 162.997 324.968 162.997L356.611 171.886C356.611 171.886 340.944 153.095 346.223 141.878C352.096 129.401 373.363 145.101 380.574 133.342C386.954 122.938 368.331 106.529 376.798 102.33L398.481 91.5763C406.948 87.3768 417.164 81.3808 426.634 87.1729C436.504 93.2091 428.583 101.008 429.224 112.531C430.018 126.798 423.931 135.485 428.27 149.106C430.859 157.235 438.51 159.71 438.849 168.231C439.265 178.649 425.082 191.12 425.082 191.12L451.141 198.44C451.141 198.44 461.862 182.785 462.43 171.335C463.253 154.749 444.991 149.773 443.457 133.236C440.903 105.715 507.912 77.8045 480.619 72.9743C463.92 70.0191 441.157 91.0092 441.157 91.0092C441.157 91.0092 465.381 41.9619 457.469 11.0953C445.179 -36.8464 414.419 94.087 410.35 83.1046C406.281 72.1222 426.332 12.405 400.677 35.0961C383.788 50.0344 402.279 82.1193 380.863 89.2569C354.646 97.9946 364.94 19.9206 339.919 31.6331C314.92 43.3358 364.789 73.1642 357.961 99.8499C354.667 112.722 354.966 126.822 342.008 129.914C334.508 131.704 330.025 123.302 322.706 125.724Z" fill="#CE2E19"/>
<path d="M346.223 141.878C340.944 153.095 356.611 171.886 356.611 171.886L380.144 178.496C380.144 178.496 370.432 164.105 372.289 154.382C374.96 140.4 388.501 128.906 402.089 133.288C414.066 137.151 417.915 149.393 416.798 161.891C415.861 172.369 402.613 184.808 402.613 184.808L425.082 191.12C425.082 191.12 439.265 178.649 438.849 168.231C438.51 159.71 430.859 157.235 428.27 149.106C423.931 135.485 430.018 126.798 429.224 112.531C428.583 101.008 436.504 93.2091 426.634 87.1729C417.164 81.3808 406.948 87.3768 398.481 91.5763L376.798 102.33C368.331 106.529 386.954 122.938 380.574 133.342C373.363 145.101 352.096 129.401 346.223 141.878Z" fill="#CE6419"/>
<path d="M372.289 154.382C370.432 164.105 380.144 178.496 380.144 178.496L402.613 184.808C402.613 184.808 415.861 172.369 416.798 161.891C417.915 149.393 414.066 137.151 402.089 133.288C388.501 128.906 374.96 140.4 372.289 154.382Z" fill="#CEB319"/>
<path d="M356.611 171.886L324.968 162.997C324.968 162.997 308.829 130.315 322.706 125.724C330.025 123.302 334.508 131.704 342.008 129.914C354.966 126.822 354.667 112.722 357.961 99.8499C364.789 73.1642 314.92 43.3358 339.919 31.6331C364.94 19.9206 354.646 97.9946 380.863 89.2569C402.279 82.1193 383.788 50.0344 400.677 35.0961C426.332 12.405 406.281 72.1222 410.35 83.1046C414.419 94.087 445.179 -36.8464 457.469 11.0953C465.381 41.9619 441.157 91.0092 441.157 91.0092C441.157 91.0092 463.92 70.0191 480.619 72.9743C507.912 77.8045 440.903 105.715 443.457 133.236C444.991 149.773 463.253 154.749 462.43 171.335C461.862 182.785 451.141 198.44 451.141 198.44L425.082 191.12M356.611 171.886C356.611 171.886 340.944 153.095 346.223 141.878C352.096 129.401 373.363 145.101 380.574 133.342C386.954 122.938 368.331 106.529 376.798 102.33M356.611 171.886L380.144 178.496M376.798 102.33C385.266 98.1303 390.013 95.7758 398.481 91.5763M376.798 102.33L398.481 91.5763M398.481 91.5763C406.948 87.3768 417.164 81.3808 426.634 87.1729C436.504 93.2091 428.583 101.008 429.224 112.531C430.018 126.798 423.931 135.485 428.27 149.106C430.859 157.235 438.51 159.71 438.849 168.231C439.265 178.649 425.082 191.12 425.082 191.12M425.082 191.12L402.613 184.808M380.144 178.496C380.144 178.496 370.432 164.105 372.289 154.382C374.96 140.4 388.501 128.906 402.089 133.288C414.066 137.151 417.915 149.393 416.798 161.891C415.861 172.369 402.613 184.808 402.613 184.808M380.144 178.496L402.613 184.808" stroke="black"/>
<path d="M212.08 309.481C207.08 307.981 207.206 311.16 207.58 313.481C207.867 315.258 209.28 316.481 211.08 316.481C212.88 316.481 214.29 315.258 214.58 313.481C214.653 313.036 214.84 312.658 215.008 312.32C215.524 311.28 215.854 310.614 212.08 309.481Z" fill="black"/>
<path fill-rule="evenodd" clip-rule="evenodd" d="M189.08 362.481C189.08 362.481 189.08 343.481 187.08 338.481C186.447 336.898 185.209 335.043 183.783 332.904C180.704 328.287 176.744 322.35 176.08 314.981C175.286 306.17 176.848 298.282 184.58 293.981C189.568 291.207 194.288 291.468 199.08 293.272C200.336 293.745 201.597 294.323 202.87 294.981L202.58 299.47C204.643 298.737 206.58 297.481 206.58 297.481L207.08 297.39C215.487 302.673 218.852 308.283 215.08 317.981C214.216 320.203 213.634 321.62 213.23 322.602C212.742 323.791 212.515 324.344 212.366 324.917C212.236 325.414 212.166 325.927 212.033 326.885C211.934 327.605 211.8 328.576 211.58 329.981C210.071 339.627 213.58 364.481 213.58 364.481L189.08 362.481ZM212.08 309.481C207.08 307.981 207.206 311.16 207.58 313.481C207.867 315.258 209.28 316.481 211.08 316.481C212.88 316.481 214.29 315.258 214.58 313.481C214.653 313.036 214.84 312.658 215.008 312.32C215.524 311.28 215.854 310.614 212.08 309.481Z" fill="#D9D9D9"/>
<path d="M205.58 296.481C204.67 295.948 203.767 295.445 202.87 294.981L202.58 299.47C204.643 298.737 206.58 297.481 206.58 297.481L207.08 297.39C206.597 297.086 206.096 296.784 205.58 296.481Z" fill="#010101"/>
<path d="M199.08 293.272C194.288 291.468 189.568 291.207 184.58 293.981C176.848 298.282 175.286 306.17 176.08 314.981C176.744 322.35 180.704 328.287 183.783 332.904C185.209 335.043 186.447 336.898 187.08 338.481C189.08 343.481 189.08 362.481 189.08 362.481L213.58 364.481C213.58 364.481 210.071 339.627 211.58 329.981C211.8 328.576 211.934 327.605 212.033 326.885C212.166 325.927 212.236 325.414 212.366 324.917C212.515 324.344 212.742 323.791 213.23 322.602C213.634 321.62 214.216 320.203 215.08 317.981C218.852 308.283 215.487 302.673 207.08 297.39M199.08 293.272C199.08 293.272 196.97 297.009 198.08 298.981C198.854 300.356 200.765 300.115 202.58 299.47M199.08 293.272C200.336 293.745 201.597 294.323 202.87 294.981M202.87 294.981C203.767 295.445 204.67 295.948 205.58 296.481C206.096 296.784 206.597 297.086 207.08 297.39M202.87 294.981L202.58 299.47M202.58 299.47C204.643 298.737 206.58 297.481 206.58 297.481L207.08 297.39M212.08 309.481C207.08 307.981 207.206 311.16 207.58 313.481C207.867 315.258 209.28 316.481 211.08 316.481C212.88 316.481 214.29 315.258 214.58 313.481C214.653 313.036 214.84 312.658 215.008 312.32C215.524 311.28 215.854 310.614 212.08 309.481Z" stroke="black"/>
<path d="M82.048 381.033H53.504V453.481H28.672V381.033H1.71661e-05V356.201H82.048V381.033ZM169.971 453.481H145.139V417.257H115.187V453.481H90.355V356.201H115.187V392.425H145.139V356.201H169.971V453.481ZM242.634 453.481H182.73V356.201H242.634V381.033H207.562V392.425H242.634V417.257H207.562V428.649H242.634V453.481ZM76.032 558.697C75.008 563.647 72.6614 567.828 68.992 571.241C65.408 574.655 60.9707 577.215 55.68 578.921C50.3894 580.628 44.7574 581.481 38.784 581.481H4.48002V484.201H38.784C44.928 484.201 50.6027 485.481 55.808 488.041C61.0987 490.516 65.2374 493.844 68.224 498.025C71.296 502.207 72.832 506.729 72.832 511.593C72.832 519.103 69.0774 525.844 61.568 531.817C66.0054 534.121 69.5894 537.279 72.32 541.289C75.136 545.3 76.544 549.609 76.544 554.217C76.544 555.924 76.3734 557.417 76.032 558.697ZM49.152 514.793C49.152 513.001 48.1707 511.465 46.208 510.185C44.2454 508.82 41.7707 508.137 38.784 508.137H29.824L29.696 520.553H38.784C45.696 520.553 49.152 518.633 49.152 514.793ZM51.328 551.273C51.4987 549.567 50.7734 548.116 49.152 546.921C47.5307 545.727 45.2267 545.129 42.24 545.129H29.696L29.824 557.545H42.24C44.8 557.545 46.9334 556.948 48.64 555.753C50.3467 554.559 51.2427 553.065 51.328 551.273ZM176.824 581.481H150.2L144.696 566.377H115L109.624 581.481H83L119.224 484.201H140.6L176.824 581.481ZM137.656 547.049L129.848 525.545L122.168 547.049H137.656ZM252.049 514.153C247.185 509.801 241.382 507.625 234.641 507.625C230.033 507.625 225.638 508.82 221.457 511.209C217.361 513.513 214.076 516.628 211.601 520.553C209.126 524.393 207.889 528.489 207.889 532.841C207.889 537.193 209.126 541.332 211.601 545.257C214.076 549.097 217.361 552.212 221.457 554.601C225.638 556.905 230.033 558.057 234.641 558.057C241.382 558.057 247.185 555.881 252.049 551.529L262.033 574.825C253.67 580.116 244.54 582.761 234.641 582.761C225.596 582.761 217.105 580.457 209.169 575.849C201.318 571.241 195.004 565.14 190.225 557.545C185.532 549.865 183.185 541.631 183.185 532.841C183.185 524.052 185.532 515.86 190.225 508.265C195.004 500.585 201.318 494.441 209.169 489.833C217.105 485.225 225.596 482.921 234.641 482.921C244.796 482.921 254.054 485.652 262.417 491.113L252.049 514.153ZM359.499 484.201L323.275 533.737L358.603 581.481H327.755L298.187 538.857V581.481H273.355V484.201H298.187V525.033L330.315 484.201H359.499ZM427.759 581.481H367.855V484.201H427.759V509.033H392.687V520.425H427.759V545.257H392.687V556.649H427.759V581.481ZM521.549 581.481H496.717L463.437 532.201V581.481H438.605V484.201H463.437L496.717 538.729V484.201H521.549V581.481ZM619.731 533.993C619.731 542.612 617.683 550.548 613.587 557.801C609.576 565.055 603.774 570.815 596.179 575.081C588.584 579.348 579.752 581.481 569.683 581.481H534.355V484.201H569.683C580.008 484.201 588.926 486.42 596.435 490.857C604.03 495.295 609.79 501.311 613.715 508.905C617.726 516.5 619.731 524.863 619.731 533.993ZM595.027 535.273C595.027 527.593 592.851 521.279 588.499 516.329C584.147 511.38 577.875 508.905 569.683 508.905H559.315V556.777H569.683C574.632 556.777 579.027 555.839 582.867 553.961C586.707 551.999 589.694 549.396 591.827 546.153C593.96 542.825 595.027 539.199 595.027 535.273Z" fill="#D9D9D9"/>
</svg>
